#define browse_width 16
#define browse_height 16
static unsigned char browse_bits[] = {
   0x60, 0x00, 0xf8, 0x01, 0x0c, 0x03, 0x06, 0x06, 0x02, 0x04, 0x03, 0x0c,
   0x03, 0x0c, 0x02, 0x04, 0x06, 0x06, 0x0c, 0x07, 0xf8, 0x0f, 0x60, 0x1c,
   0x00, 0x38, 0x00, 0x70, 0x00, 0x60, 0x00, 0x00 };
