#define browse_width 16
#define browse_height 16
static unsigned char browse_bits[] = {
   0xf8, 0x01, 0xfc, 0x03, 0x0e, 0x07, 0x07, 0x0e, 0x03, 0x0c, 0x03, 0x0c,
   0x03, 0x0c, 0x03, 0x0c, 0x07, 0x0e, 0x0e, 0x07, 0xfc, 0x0f, 0xf8, 0x1d,
   0x00, 0x38, 0x00, 0x70, 0x00, 0x60, 0x00, 0x00 };
