#define count2_width 14
#define count2_height 14
static unsigned char count2_bits[] = {
   0x00, 0x00, 0x00, 0x00, 0x00, 0x00, 0x54, 0x05, 0x54, 0x05, 0x54, 0x1d,
   0xd4, 0x07, 0x7c, 0x05, 0x57, 0x05, 0x54, 0x05, 0x54, 0x05, 0x00, 0x00,
   0x00, 0x00, 0x00, 0x00 };
