#define count_width 14
#define count_height 14
static unsigned char count_bits[] = {
   0x00, 0x00, 0x00, 0x00, 0x00, 0x00, 0x54, 0x05, 0x54, 0x05, 0x54, 0x05,
   0xd4, 0x1f, 0x7f, 0x05, 0x54, 0x05, 0x54, 0x05, 0x54, 0x05, 0x00, 0x00,
   0x00, 0x00, 0x00, 0x00 };
