#define count_width 14
#define count_height 14
static unsigned char count_bits[] = {
   0x00, 0x00, 0x00, 0x00, 0x00, 0x00, 0x54, 0x05, 0x54, 0x0d, 0x54, 0x07,
   0xd4, 0x05, 0x74, 0x05, 0x5c, 0x05, 0x56, 0x05, 0x54, 0x05, 0x00, 0x00,
   0x00, 0x00, 0x00, 0x00 };
