#define like_width 14
#define like_height 14
static unsigned char like_bits[] = {
   0x00, 0x00, 0x80, 0x01, 0x80, 0x03, 0x80, 0x02, 0xc0, 0x02, 0x7f, 0x3e,
   0x21, 0x20, 0x21, 0x20, 0x21, 0x20, 0x21, 0x30, 0x21, 0x10, 0x21, 0x18,
   0xff, 0x0f, 0x00, 0x00 };
