#define paste_width 16
#define paste_height 16
static unsigned char paste_bits[] = {
   0xf8, 0x03, 0xbe, 0x0f, 0x0f, 0x1e, 0xf3, 0x19, 0xf3, 0x19, 0x03, 0x00,
   0x83, 0x3f, 0x43, 0x40, 0x43, 0x40, 0x43, 0x4e, 0x43, 0x40, 0x43, 0x40,
   0x43, 0x4e, 0x5f, 0x40, 0x9f, 0x40, 0x00, 0x3f };
