#define paste_width 16
#define paste_height 16
static unsigned char paste_bits[] = {
   0xe0, 0x00, 0xb8, 0x03, 0x0e, 0x0e, 0xf2, 0x09, 0x02, 0x08, 0x02, 0x00,
   0x82, 0x3f, 0xc2, 0x60, 0x42, 0x40, 0x42, 0x4e, 0x42, 0x40, 0x42, 0x40,
   0x42, 0x4e, 0xde, 0x40, 0x80, 0x61, 0x00, 0x3f };
