#define rating_width 14
#define rating_height 14
static unsigned char rating_bits[] = {
   0x00, 0x00, 0xc0, 0x00, 0xe0, 0x01, 0x20, 0x01, 0x30, 0x03, 0x1e, 0x1e,
   0x06, 0x18, 0x0c, 0x0c, 0x18, 0x06, 0x08, 0x04, 0xe8, 0x05, 0x38, 0x07,
   0x18, 0x06, 0x00, 0x00 };
